<?xml version="1.0" encoding="utf-8"?>
<!-- Generator: Adobe Illustrator 16.0.0, SVG Export Plug-In . SVG Version: 6.00 Build 0)  -->
<!DOCTYPE svg PUBLIC "-//W3C//DTD SVG 1.1//EN" "http://www.w3.org/Graphics/SVG/1.1/DTD/svg11.dtd">
<svg version="1.1" id="Layer_1" xmlns="http://www.w3.org/2000/svg" xmlns:xlink="http://www.w3.org/1999/xlink" x="0px" y="0px"
	 width="86px" height="86px" viewBox="134.5 134.5 86 86" enable-background="new 134.5 134.5 86 86" xml:space="preserve">
<g>
	<g>
		<g>
			<defs>
				<path id="SVGID_1_" d="M136.316,134.87c-0.796,0-1.447,0.651-1.447,1.447v43.165l0.037-0.007
					c0.902,22.89,19.74,41.172,42.852,41.172c23.687,0,42.889-19.202,42.889-42.889c0-23.065-18.209-41.875-41.034-42.846
					l0.012-0.042H136.316z"/>
			</defs>
			<clipPath id="SVGID_2_">
				<use xlink:href="#SVGID_1_"  overflow="visible"/>
			</clipPath>
			
				<linearGradient id="SVGID_3_" gradientUnits="userSpaceOnUse" x1="-171.8042" y1="-17.2036" x2="-171.5632" y2="-17.2036" gradientTransform="matrix(249.2197 -249.2197 249.2197 249.2197 47252.5078 -38321.9922)">
				<stop  offset="0" style="stop-color:#82469B"/>
				<stop  offset="8.271670e-007" style="stop-color:#82469B"/>
				<stop  offset="1" style="stop-color:#E73B87"/>
			</linearGradient>
			<polygon clip-path="url(#SVGID_2_)" fill="url(#SVGID_3_)" points="91.98,177.758 177.758,91.98 263.534,177.758 
				177.758,263.534 			"/>
		</g>
	</g>
	<g>
		<g>
			<defs>
				<rect id="SVGID_4_" x="93.192" y="130.75" width="169.616" height="94.5"/>
			</defs>
			<clipPath id="SVGID_5_">
				<use xlink:href="#SVGID_4_"  overflow="visible"/>
			</clipPath>
			<path clip-path="url(#SVGID_5_)" fill="#FFFFFF" d="M193.969,169.062c-1.208,0-2.376,0.176-3.479,0.503l-1.797-4.299h3.337
				c0.803,0,1.454-0.651,1.454-1.454c0-0.803-0.651-1.454-1.454-1.454h-5.022c-0.005,0-0.011,0-0.016,0h-0.615
				c-0.104,0-0.21,0.009-0.317,0.027c-1.562,0.46-0.96,1.841-0.96,1.842c0.187,0.437,0.422,0.989,0.422,0.989l2.298,5.5
				l-19.38,17.476c-0.082,0.077-0.166,0.152-0.25,0.227l-0.089,0.08l-0.002-0.001c-1.637,1.392-3.753,2.236-6.066,2.236
				c-5.173,0-9.381-4.209-9.381-9.383c0-5.173,4.208-9.381,9.381-9.381c3.734,0,6.965,2.193,8.475,5.359l0.197,0.453
				c0.001-0.001,0.002-0.001,0.003-0.002c0.455,1.102,0.708,2.307,0.708,3.571c0,0.003,0,0.006,0,0.008l2.625-2.624
				c-0.113-0.521-0.259-1.027-0.436-1.521c0.009,0.002,0.017,0.002,0.025,0.004l-0.205-0.471c-0.073-0.179-0.15-0.356-0.231-0.532
				l-0.642-1.477h6.434l0.008-0.067l2.82-2.821c-0.075-0.012-0.152-0.02-0.23-0.02h-10.295l-2.133-4.908h2.129
				c0.803,0,1.454-0.65,1.454-1.454c0-0.803-0.651-1.454-1.454-1.454h-7.864c-0.803,0-1.454,0.651-1.454,1.454
				c0,0.803,0.651,1.454,1.454,1.454h2.564l1.482,3.411c-1.639-0.812-3.482-1.271-5.433-1.271c-6.776,0-12.29,5.513-12.29,12.29
				c0,6.777,5.513,12.29,12.29,12.29c3.236,0,6.18-1.262,8.376-3.314l0.006-0.001c0,0,17.632-16.062,18.538-16.897l3.675,8.793
				c0.233,0.559,0.771,0.895,1.342,0.895c0.187,0,0.376-0.036,0.56-0.112c0.742-0.31,1.091-1.162,0.782-1.903l-3.691-8.833
				c0.751-0.194,1.538-0.299,2.35-0.299c5.173,0,9.381,4.209,9.381,9.382c0,5.174-4.208,9.383-9.381,9.383
				c-5.174,0-9.383-4.209-9.383-9.383c0-0.027,0.002-0.056,0.004-0.083l-2.642,2.641c1.181,5.554,6.12,9.732,12.021,9.732
				c6.775,0,12.29-5.514,12.29-12.29S200.744,169.062,193.969,169.062"/>
		</g>
	</g>
</g>
</svg>
